<svg xmlns="http://www.w3.org/2000/svg" style="" viewBox="0 0 64 64" x="0px" y="0px" width="64px" height="64px" xmlns:xml="http://www.w3.org/XML/1998/namespace" xml:space="preserve" version="1.1">
<g id="Layer_1">
</g>
<g id="Layer_2">
</g>
<g id="Layer_3">
<g>
<path style="fill: #B5B7B9;" d="M 63 24.3 C 59.5 10 46.7 0 32 0 C 17.1 0 4 10.6 0.8 25.1 l -0.3 1.3 h 6.4 l 0.2 -0.8 C 10 14.2 20.3 6.2 32 6.2 c 11.3 0 21.5 7.7 24.7 18.6 l 0.2 0.7 h 6.4 L 63 24.3 Z" />
<path style="fill: #B5B7B9;" d="M 56.4 40 l -0.2 0.7 C 52.5 50.9 42.8 57.8 32 57.8 c -10.6 0 -20 -6.4 -23.9 -16.3 l -0.3 -0.7 H 1.3 l 0.5 1.4 C 6.1 55.2 18.3 64 32 64 c 14.1 0 26.4 -9.1 30.6 -22.7 L 63 40 H 56.4 Z" />
<path style="fill: #B5B7B9;" d="M 35.1 49 l -7 -20.2 l -4 7.4 H 3.3 c -1.4 0 -2.6 -1.2 -2.6 -2.6 c 0 -1.4 1.2 -2.6 2.6 -2.6 H 21 l 8.2 -15 l 7.3 21.2 l 4.5 -7 h 19.9 c 1.4 0 2.6 1.2 2.6 2.6 c 0 1.4 -1.2 2.6 -2.6 2.6 H 43.8 L 35.1 49 Z" />
	</g>
</g>
</svg>