
<svg xmlns="http://www.w3.org/2000/svg" viewBox="0 0 16 16">
    <defs>
        <style>
            .cls-abc-1{fill:none}.cls-abc-2{fill:#07f}
        </style>
    </defs>
    <g transform="translate(-91 -132)">
        <path d="M0 0h16v16H0z" class="cls-abc-1" transform="translate(91 132)"/>
        <path d="M3.327-.606a2.272 2.272 0 0 1-1.5.716 1.373 1.373 0 0 1-.983-.371A1.239 1.239 0 0 1 .453-1.2a1.344 1.344 0 0 1 .657-1.2 3.507 3.507 0 0 1 1.883-.42H3.2v-.58a.744.744 0 0 0-.853-.831 3.187 3.187 0 0 0-1.481.422v-.716A4.363 4.363 0 0 1 2.5-4.878a1.665 1.665 0 0 1 1.18.36A1.479 1.479 0 0 1 4.065-3.4v2.162q0 .743.457.743a1.149 1.149 0 0 0 .167-.015l.062.479A1.49 1.49 0 0 1 4.1.11q-.606 0-.773-.716zM3.2-1.077v-1.235l-.29-.009a2.175 2.175 0 0 0-1.151.27.809.809 0 0 0-.439.71.71.71 0 0 0 .22.527.737.737 0 0 0 .534.214A1.8 1.8 0 0 0 3.2-1.077zM5.836.053v-6.992H6.7v3.063a1.709 1.709 0 0 1 1.6-1 1.631 1.631 0 0 1 1.356.628 2.709 2.709 0 0 1 .494 1.718 3.051 3.051 0 0 1-.56 1.914A1.772 1.772 0 0 1 8.112.11 1.787 1.787 0 0 1 6.7-.541l-.1.594zM6.7-1.138a1.966 1.966 0 0 0 1.274.6q1.248 0 1.248-1.9 0-1.679-1.107-1.679a1.928 1.928 0 0 0-1.415.782zM13.364.11a2.056 2.056 0 0 1-1.6-.716 2.617 2.617 0 0 1-.637-1.806 2.5 2.5 0 0 1 .631-1.815 2.338 2.338 0 0 1 1.76-.65 5.788 5.788 0 0 1 1.248.154V-4a4.457 4.457 0 0 0-1.2-.215 1.3 1.3 0 0 0-1.066.5 2.056 2.056 0 0 0-.4 1.329 1.967 1.967 0 0 0 .413 1.3 1.339 1.339 0 0 0 1.081.5 2.8 2.8 0 0 0 1.222-.3v.747a5.11 5.11 0 0 1-1.452.249z" class="cls-abc-2" transform="translate(91 144)"/>
    </g>
</svg>
