<svg width="16" height="16" viewBox="0 0 16 16" fill="none" xmlns="http://www.w3.org/2000/svg">
	<path d="M5.5 11H0.5V10H5.5V11ZM5.5 6H0.5V5H5.5V6ZM15.5 5V6H10.5V5H15.5Z" fill="#136BFB"/>
	<path d="M8 15H0V1H16V7H15V2H1V14H8.875L8 14.875V15Z" fill="#136BFB"/>
	<path d="M8.38281 14.5H5.5V1.5H10.5V7H8V9.125L10.5 11.6172V12.3828L8.38281 14.5Z" fill="#83BEEC"/>
	<path d="M8 15H5V1H11V7H10V6H6V10H8.875L9.875 11H6V14H8.875L8 14.875V15ZM6 5H10V2H6V5ZM10 12.875V11.125L10.875 12L10 12.875Z" fill="#136BFB"/>
	<path d="M15 10V9H10.7109L13.7109 12L10.7109 15H15V14H16V16H9V15.2891L12.2891 12L9 8.71094V8H16V10H15Z" fill="#136BFB"/>
</svg>
