<svg xmlns="http://www.w3.org/2000/svg" viewBox="0 0 13 12.188">
  <defs>
    <style>
      .cls-1 {
        fill: #07f;
      }
    </style>
  </defs>
  <path id="Calendar_Light_Theme" class="cls-1" d="M4.875-8.125h.813v.813H4.875ZM7.313-3.25h.813v.813H7.313ZM9.75-8.125h.813v.813H9.75Zm-2.437,0h.813v.813H7.313ZM4.875-6.5h.813v.813H4.875Zm-2.437,0H3.25v.813H2.438Zm7.313,0h.813v.813H9.75Zm-2.437,0h.813v.813H7.313ZM4.875-4.875h.813v.813H4.875Zm-2.437,0H3.25v.813H2.438Zm7.313,0h.813v.813H9.75Zm-2.437,0h.813v.813H7.313ZM4.875-3.25h.813v.813H4.875Zm-2.437,0H3.25v.813H2.438ZM13-12.187V-.812H0V-12.187H2.438V-13H3.25v.813h6.5V-13h.813v.813ZM.813-11.375V-9.75H12.188v-1.625H10.563v.813H9.75v-.812H3.25v.813H2.438v-.812Zm11.375,9.75V-8.937H.813v7.313Z" transform="translate(0 13)"/>
</svg>
