<svg xmlns="http://www.w3.org/2000/svg" xmlns:xlink="http://www.w3.org/1999/xlink" viewBox="0 0 19 17">
  <defs>
    <style>
      .cls-1 {
        clip-path: url(#clip-Calendar_Icon_for_Light_theme);
      }

      .cls-2 {
        opacity: 0.75;
      }

      .cls-3 {
        fill: rgba(33,33,33,0.1);
      }

      .cls-4, .cls-5, .cls-6 {
        fill: none;
      }

      .cls-4 {
        stroke: #212121;
      }

      .cls-4, .cls-5 {
        stroke-miterlimit: 1;
      }

      .cls-5 {
        stroke: #000;
        opacity: 0.1;
      }

      .cls-7 {
        fill: rgba(0,0,0,0.1);
      }

      .cls-7, .cls-8 {
        fill-rule: evenodd;
      }

      .cls-8 {
        fill: #404040;
      }

      .cls-9 {
        fill: #fff;
      }
    </style>
    <clipPath id="clip-Calendar_Icon_for_Light_theme">
      <rect width="19" height="17"/>
    </clipPath>
  </defs>
  <g id="Calendar_Icon_for_Light_theme" class="cls-1">
    <rect class="cls-9" width="19" height="17"/>
    <g id="Group_31961" data-name="Group 31961" transform="translate(-167.2 -837)">
      <g id="Group_277" data-name="Group 277" class="cls-2" transform="translate(170.222 843.289)">
        <path id="Path_654" data-name="Path 654" class="cls-3" d="M-87.3,712.8v8h13v-8Z" transform="translate(87.3 -712.8)"/>
        <path id="Path_655" data-name="Path 655" class="cls-4" d="M-87.3,712.8v8h13v-8Z" transform="translate(87.3 -712.8)"/>
      </g>
      <path id="Path_656" data-name="Path 656" class="cls-5" d="M170.2,841.3h13v3h-13Z" transform="translate(0 0)"/>
      <path id="Path_657" data-name="Path 657" class="cls-3" d="M183.2,840.3h-13v3h13Z" transform="translate(0 0)"/>
      <path id="Path_658" data-name="Path 658" class="cls-4" d="M170.2,840.3h13v3h-13Z" transform="translate(0 0)"/>
    </g>
    <g id="view-compact" transform="translate(-640.42 11.152)">
      <g id="Group_12723" data-name="Group 12723" transform="translate(624.02 63.847)">
        <g id="view-compact-2" data-name="view-compact">
          <g id="Group_31974" data-name="Group 31974" transform="translate(20 -71)">
            <g id="Group_12716" data-name="Group 12716">
              <rect id="Rectangle_13627" data-name="Rectangle 13627" class="cls-6" width="11.907" height="12"/>
            </g>
            <g id="Group_12721" data-name="Group 12721" transform="translate(2.952 4.579)">
              <path id="Path_8113" data-name="Path 8113" class="cls-7" d="M629.485,71.232v1.488H628V71.232Zm2.233,0v1.488h-1.488V71.232Zm2.232,0v1.488h-1.488V71.232ZM629.485,69v1.488H628V69Zm2.233,0v1.488h-1.488V69Zm2.232,0v1.488h-1.488V69Z" transform="translate(-627.997 -69)"/>
            </g>
            <g id="Group_12722" data-name="Group 12722" transform="translate(2.952 3.834)">
              <path id="Path_8114" data-name="Path 8114" class="cls-8" d="M629.485,71.232v1.488H628V71.232Zm2.233,0v1.488h-1.488V71.232Zm2.232,0v1.488h-1.488V71.232ZM629.485,69v1.488H628V69Zm2.233,0v1.488h-1.488V69Zm2.232,0v1.488h-1.488V69Z" transform="translate(-627.997 -69)"/>
            </g>
          </g>
        </g>
      </g>
    </g>
  </g>
</svg>
