<svg width="16" height="16" viewBox="0 0 16 16" fill="none" xmlns="http://www.w3.org/2000/svg">
  <path fill-rule="evenodd" clip-rule="evenodd" d="M16 16v-1.143H1.143V0H0v16h16zM2.286 13.714h12.571v-3.428H2.286v3.428zm1.143-2.285h6.857v1.142H3.429V11.43zm10.285 0H11.43v1.142h2.285V11.43zm1.143-2.286H2.286V5.714h12.571v3.429zM3.43 6.857h2.285V8H3.43V6.857zm10.285 0H6.857V8h6.857V6.857zM2.286 4.571h12.571V1.143H2.286V4.57zM8 2.286H3.429v1.143H8V2.286zm1.143 0h4.571v1.143H9.143V2.286z" fill="#136BFB"/>
</svg>
