<svg width="28" height="28" viewBox="0 0 28 28" fill="none" xmlns="http://www.w3.org/2000/svg">
<path d="M19.7344 6C20.0469 6 20.3411 6.0599 20.6172 6.17969C20.8932 6.29948 21.1328 6.46094 21.3359 6.66406C21.5391 6.86719 21.7005 7.10677 21.8203 7.38281C21.9401 7.65885 22 7.95312 22 8.26562C22 8.56771 21.9427 8.85938 21.8281 9.14062C21.7135 9.41667 21.5495 9.66146 21.3359 9.875L19.4609 11.75C19.6328 11.9167 19.7656 12.1068 19.8594 12.3203C19.9531 12.5286 20 12.7552 20 13C20 13.2396 19.9531 13.4635 19.8594 13.6719C19.7708 13.8802 19.6432 14.0677 19.4766 14.2344L18.25 15.4609L17 14.2031L10.7109 20.4922L10.5078 20.5C10.2422 20.5104 10.013 20.5547 9.82031 20.6328C9.63281 20.7109 9.46615 20.8073 9.32031 20.9219C9.17969 21.0312 9.04948 21.1484 8.92969 21.2734C8.8151 21.3984 8.69271 21.5156 8.5625 21.625C8.43229 21.7344 8.28906 21.8255 8.13281 21.8984C7.97656 21.9661 7.78646 22 7.5625 22C7.34896 22 7.14583 21.9583 6.95312 21.875C6.76562 21.7917 6.60156 21.6797 6.46094 21.5391C6.32031 21.3984 6.20833 21.2344 6.125 21.0469C6.04167 20.8542 6 20.651 6 20.4375C6 20.2135 6.03385 20.0234 6.10156 19.8672C6.17448 19.7057 6.26562 19.5625 6.375 19.4375C6.48438 19.3073 6.60156 19.1849 6.72656 19.0703C6.85156 18.9505 6.96875 18.8203 7.07812 18.6797C7.19271 18.5339 7.28906 18.3672 7.36719 18.1797C7.44531 17.9922 7.48958 17.763 7.5 17.4922L7.50781 17.2891L13.7969 11L12.5391 9.75L13.7656 8.52344C13.9323 8.35677 14.1198 8.22917 14.3281 8.14062C14.5365 8.04688 14.7604 8 15 8C15.2448 8 15.4714 8.04688 15.6797 8.14062C15.8932 8.23438 16.0833 8.36719 16.25 8.53906L18.125 6.66406C18.3385 6.45052 18.5833 6.28646 18.8594 6.17188C19.1406 6.05729 19.4323 6 19.7344 6ZM16.2891 13.5L14.5 11.7109L8.49219 17.7188C8.46615 17.9844 8.41667 18.2214 8.34375 18.4297C8.27083 18.638 8.17708 18.8333 8.0625 19.0156C7.94792 19.1927 7.8125 19.3646 7.65625 19.5312C7.50521 19.6927 7.34115 19.8646 7.16406 20.0469C7.05469 20.1562 7 20.2891 7 20.4453C7 20.5964 7.05469 20.7266 7.16406 20.8359C7.27344 20.9453 7.40365 21 7.55469 21C7.71094 21 7.84375 20.9453 7.95312 20.8359C8.13542 20.6589 8.3099 20.4948 8.47656 20.3438C8.64323 20.1875 8.8151 20.0521 8.99219 19.9375C9.16927 19.8229 9.36198 19.7292 9.57031 19.6562C9.77865 19.5833 10.0156 19.5339 10.2812 19.5078L16.2891 13.5ZM20.625 9.16406C20.875 8.91406 21 8.61719 21 8.27344C21 8.10156 20.9661 7.9375 20.8984 7.78125C20.8307 7.625 20.7396 7.48958 20.625 7.375C20.5104 7.26042 20.375 7.16927 20.2188 7.10156C20.0625 7.03385 19.8984 7 19.7266 7C19.3828 7 19.0859 7.125 18.8359 7.375L16.25 9.95312L15.5156 9.21875C15.3698 9.07292 15.1979 9 15 9C14.8906 9 14.7865 9.02604 14.6875 9.07812C14.5938 9.13021 14.5026 9.19531 14.4141 9.27344C14.3307 9.35156 14.25 9.4349 14.1719 9.52344C14.0938 9.60677 14.0208 9.68229 13.9531 9.75L18.25 14.0469L18.7812 13.5156C18.9271 13.3698 19 13.1979 19 13C19 12.8958 18.9792 12.8021 18.9375 12.7188C18.901 12.6302 18.8464 12.5495 18.7734 12.4766L18.0469 11.75L20.625 9.16406Z" fill="#323130"/>
</svg>
