<svg width="16" height="16" viewBox="0 0 16 16" fill="none" xmlns="http://www.w3.org/2000/svg">
<path d="M15 1.875V14.125H1V1.875H3.625V1H4.5V1.875H11.5V1H12.375V1.875H15ZM1.875 2.75V4.5H14.125V2.75H12.375V3.625H11.5V2.75H4.5V3.625H3.625V2.75H1.875ZM14.125 13.25V5.375H1.875V13.25H14.125ZM3.625 8H4.5V8.875H3.625V8ZM3.625 9.75H4.5V10.625H3.625V9.75ZM3.625 11.5H4.5V12.375H3.625V11.5ZM6.25 6.25H7.125V7.125H6.25V6.25ZM6.25 8H7.125V8.875H6.25V8ZM6.25 9.75H7.125V10.625H6.25V9.75ZM6.25 11.5H7.125V12.375H6.25V11.5ZM8.875 6.25H9.75V7.125H8.875V6.25ZM8.875 8H9.75V8.875H8.875V8ZM8.875 9.75H9.75V10.625H8.875V9.75ZM8.875 11.5H9.75V12.375H8.875V11.5ZM11.5 6.25H12.375V7.125H11.5V6.25ZM11.5 8H12.375V8.875H11.5V8ZM11.5 9.75H12.375V10.625H11.5V9.75Z" fill="#136BFB"/>
</svg>
