<svg width="16" height="16" viewBox="0 0 16 16" fill="none" xmlns="http://www.w3.org/2000/svg">
<path d="M16 1.9375V15.0625H1V1.9375H3.8125V1H4.75V1.9375H12.25V1H13.1875V1.9375H16ZM1.9375 2.875V4.75H15.0625V2.875H13.1875V3.8125H12.25V2.875H4.75V3.8125H3.8125V2.875H1.9375ZM15.0625 14.125V5.6875H1.9375V14.125H15.0625ZM3.8125 8.5H4.75V9.4375H3.8125V8.5ZM3.8125 10.375H4.75V11.3125H3.8125V10.375ZM3.8125 12.25H4.75V13.1875H3.8125V12.25ZM6.625 6.625H7.5625V7.5625H6.625V6.625ZM6.625 8.5H7.5625V9.4375H6.625V8.5ZM6.625 10.375H7.5625V11.3125H6.625V10.375ZM6.625 12.25H7.5625V13.1875H6.625V12.25ZM9.4375 6.625H10.375V7.5625H9.4375V6.625ZM9.4375 8.5H10.375V9.4375H9.4375V8.5ZM9.4375 10.375H10.375V11.3125H9.4375V10.375ZM9.4375 12.25H10.375V13.1875H9.4375V12.25ZM12.25 6.625H13.1875V7.5625H12.25V6.625ZM12.25 8.5H13.1875V9.4375H12.25V8.5ZM12.25 10.375H13.1875V11.3125H12.25V10.375Z" fill="#136BFB"/>
</svg>
