
<svg xmlns="http://www.w3.org/2000/svg" viewBox="0 0 16 16">
    <defs>
        <style>
            .cls-date-1{fill:none}.cls-date-2{fill:#07f}
        </style>
    </defs>
    <g transform="translate(-21 -132)">
        <path d="M0 0h16v16H0z" class="cls-date-1" transform="translate(21 132)"/>
        <path d="M6-7h1v1H6zm3 6h1v1H9zm3-6h1v1h-1zM9-7h1v1H9zM6-5h1v1H6zM3-5h1v1H3zm9 0h1v1h-1zM9-5h1v1H9zM6-3h1v1H6zM3-3h1v1H3zm9 0h1v1h-1zM9-3h1v1H9zM6-1h1v1H6zM3-1h1v1H3zm13-11V2H0v-14h3v-1h1v1h8v-1h1v1zM1-11v2h14v-2h-2v1h-1v-1H4v1H3v-1zM15 1v-9H1v9z" class="cls-date-2" transform="translate(21 145)"/>
    </g>
</svg>