<svg width="15" height="16" viewBox="0 0 15 16" fill="none" xmlns="http://www.w3.org/2000/svg">
<path fill-rule="evenodd" clip-rule="evenodd" d="M13 7.75781C13.3125 7.97135 13.5924 8.21484 13.8398 8.48828C14.0872 8.76172 14.2969 9.0586 14.4687 9.37891C14.6406 9.69922 14.7721 10.0391 14.8633 10.3984C14.9544 10.7578 15 11.125 15 11.5C15 12.1198 14.8815 12.7031 14.6445 13.25C14.4075 13.7969 14.0859 14.2734 13.6797 14.6797C13.2734 15.0859 12.7969 15.4075 12.25 15.6445C11.7031 15.8815 11.1198 16 10.5 16C10.026 16 9.5677 15.9284 9.12499 15.7851C8.68228 15.6419 8.27473 15.4388 7.90234 15.1758C7.52994 14.9128 7.20182 14.5963 6.91796 14.2266C6.63411 13.8568 6.41406 13.4479 6.25781 13H0V0.999999H2V0H3V0.999999H9.99999V0H11V0.999999H13L13 7.75781ZM0.999989 2V4H12V2H11V3H9.99998V2H2.99999V3H1.99999V2H0.999989ZM5.99999 11.5C5.99999 11.6719 6.0078 11.8385 6.02343 12L0.99999 12V5H12V7.25782C11.5208 7.08594 11.0208 7 10.5 7C10.1614 7 9.82811 7.03777 9.49998 7.11329C9.17186 7.18881 8.85806 7.29818 8.55858 7.44141C8.2591 7.58464 7.97785 7.75912 7.71483 7.96485C7.45181 8.17058 7.21353 8.40625 6.99999 8.67188V8H5.99999V9H6.7578C6.5078 9.375 6.319 9.77344 6.19139 10.1953C6.06379 10.6172 5.99999 11.0521 5.99999 11.5ZM10.5 15C10.9844 15 11.4388 14.9075 11.8633 14.7227C12.2877 14.5378 12.6575 14.2878 12.9726 13.9727C13.2877 13.6575 13.5377 13.2878 13.7226 12.8633C13.9075 12.4388 14 11.9844 14 11.5C14 11.0156 13.9075 10.5612 13.7226 10.1367C13.5377 9.71224 13.2877 9.34245 12.9726 9.02734C12.6575 8.71224 12.2877 8.46224 11.8633 8.27734C11.4388 8.09245 10.9844 8 10.5 8C10.0156 8 9.56118 8.09245 9.1367 8.27734C8.71222 8.46224 8.34243 8.71224 8.02733 9.02734C7.71222 9.34245 7.46222 9.71224 7.27733 10.1367C7.09243 10.5612 6.99998 11.0156 6.99998 11.5C6.99998 11.9844 7.09243 12.4388 7.27733 12.8633C7.46222 13.2878 7.71222 13.6575 8.02733 13.9727C8.34243 14.2878 8.71222 14.5378 9.1367 14.7227C9.56118 14.9075 10.0156 15 10.5 15ZM12.5 11H11V9H9.99998V12H12.5V11ZM1.99999 8H2.99999V9H1.99999V8ZM4.99999 8H3.99999V9H4.99999V8ZM3.99999 6H4.99999V7H3.99999V6ZM2.99999 10H1.99999V11H2.99999V10ZM3.99999 10H4.99999V11H3.99999V10ZM5.99999 7H6.99999V6H5.99999V7ZM8.99998 7H7.99998V6H8.99998V7ZM9.99998 7H11V6H9.99998V7Z" fill="#60AAFF"/>
</svg>