<svg xmlns="http://www.w3.org/2000/svg" width="17" height="9" viewBox="0 0 17 9" fill="none">
<g opacity="0.25">
<path opacity="0.25" d="M3.50026 7C3.79686 7 4.08696 6.912 4.33356 6.7472C4.58026 6.5824 4.77256 6.3481 4.88606 6.074C4.99956 5.8 5.02926 5.4983 4.97136 5.2073C4.91356 4.9164 4.77066 4.6491 4.56086 4.4393C4.35106 4.2296 4.08386 4.0867 3.79296 4.0288C3.50196 3.9709 3.20036 4.0007 2.92626 4.1142C2.65216 4.2277 2.41786 4.42 2.25306 4.6666C2.08816 4.9133 2.00026 5.2033 2.00026 5.5C1.99655 5.698 2.03296 5.8947 2.10706 6.0783C2.18106 6.262 2.29146 6.4288 2.43146 6.5689C2.57156 6.7089 2.73836 6.8192 2.92196 6.8933C3.10556 6.9674 3.30226 7.0037 3.50026 7Z" fill="black"/>
<path opacity="0.25" d="M8.50026 7C8.79686 7 9.08696 6.912 9.33355 6.7472C9.58026 6.5824 9.77256 6.3481 9.88606 6.074C9.99956 5.8 10.0293 5.4983 9.97136 5.2073C9.91356 4.9164 9.77066 4.6491 9.56086 4.4393C9.35106 4.2296 9.08386 4.0867 8.79296 4.0288C8.50196 3.9709 8.20036 4.0007 7.92626 4.1142C7.65216 4.2277 7.41786 4.42 7.25306 4.6666C7.08816 4.9133 7.00026 5.2033 7.00026 5.5C6.99656 5.698 7.03296 5.8947 7.10706 6.0783C7.18106 6.262 7.29146 6.4288 7.43146 6.5689C7.57156 6.7089 7.73836 6.8192 7.92196 6.8933C8.10556 6.9674 8.30226 7.0037 8.50026 7Z" fill="black"/>
<path opacity="0.25" d="M13.5003 7C13.7969 7 14.087 6.912 14.3336 6.7472C14.5803 6.5824 14.7726 6.3481 14.8861 6.074C14.9996 5.8 15.0293 5.4983 14.9714 5.2073C14.9136 4.9164 14.7707 4.6491 14.5609 4.4393C14.3511 4.2296 14.0839 4.0867 13.793 4.0288C13.502 3.9709 13.2004 4.0007 12.9263 4.1142C12.6522 4.2277 12.4179 4.42 12.2531 4.6666C12.0882 4.9133 12.0003 5.2033 12.0003 5.5C11.9966 5.698 12.033 5.8947 12.1071 6.0783C12.1811 6.262 12.2915 6.4288 12.4315 6.5689C12.5716 6.7089 12.7384 6.8192 12.922 6.8933C13.1056 6.9674 13.3023 7.0037 13.5003 7Z" fill="black"/>
</g>
<path d="M3.50026 6C3.79686 6 4.08696 5.912 4.33356 5.7472C4.58026 5.5824 4.77256 5.3481 4.88606 5.074C4.99956 4.8 5.02926 4.4983 4.97136 4.2073C4.91356 3.9164 4.77066 3.6491 4.56086 3.4393C4.35106 3.2296 4.08386 3.0867 3.79296 3.0288C3.50196 2.9709 3.20036 3.0007 2.92626 3.1142C2.65216 3.2277 2.41786 3.42 2.25306 3.6666C2.08816 3.9133 2.00026 4.2033 2.00026 4.5C1.99655 4.698 2.03296 4.8947 2.10706 5.0783C2.18106 5.262 2.29146 5.4288 2.43146 5.5689C2.57156 5.7089 2.73836 5.8192 2.92196 5.8933C3.10556 5.9674 3.30226 6.0037 3.50026 6Z" fill="black"/>
<path d="M4.50041 4.49999C4.50041 4.69779 4.44181 4.89109 4.33201 5.05549C4.22211 5.21999 4.06581 5.34819 3.88311 5.42389C3.70041 5.49959 3.49931 5.51939 3.30541 5.48079C3.11141 5.44219 2.93321 5.34689 2.79341 5.20709C2.65351 5.06719 2.55831 4.88899 2.51971 4.69509C2.48111 4.50109 2.50091 4.29999 2.57661 4.11729C2.65231 3.93459 2.78041 3.77839 2.94491 3.66849C3.10931 3.55859 3.30261 3.49999 3.50041 3.49999C3.63381 3.49199 3.76741 3.51229 3.89241 3.55969C4.01731 3.60719 4.13091 3.68059 4.22541 3.77509C4.31991 3.86959 4.39331 3.98309 4.44071 4.10799C4.48811 4.23299 4.50841 4.36659 4.50041 4.49999Z" stroke="#F4F4F4"/>
<path d="M8.50026 6C8.79686 6 9.08696 5.912 9.33355 5.7472C9.58026 5.5824 9.77256 5.3481 9.88606 5.074C9.99956 4.8 10.0293 4.4983 9.97136 4.2073C9.91356 3.9164 9.77066 3.6491 9.56086 3.4393C9.35106 3.2296 9.08386 3.0867 8.79296 3.0288C8.50196 2.9709 8.20036 3.0007 7.92626 3.1142C7.65216 3.2277 7.41786 3.42 7.25306 3.6666C7.08816 3.9133 7.00026 4.2033 7.00026 4.5C6.99656 4.698 7.03296 4.8947 7.10706 5.0783C7.18106 5.262 7.29146 5.4288 7.43146 5.5689C7.57156 5.7089 7.73836 5.8192 7.92196 5.8933C8.10556 5.9674 8.30226 6.0037 8.50026 6Z" fill="black"/>
<path d="M9.50041 4.49999C9.50041 4.69779 9.44181 4.89109 9.33201 5.05549C9.22211 5.21999 9.06581 5.34819 8.88311 5.42389C8.70041 5.49959 8.49932 5.51939 8.30542 5.48079C8.11142 5.44219 7.93321 5.34689 7.79341 5.20709C7.65351 5.06719 7.55831 4.88899 7.51971 4.69509C7.48111 4.50109 7.50091 4.29999 7.57661 4.11729C7.65231 3.93459 7.78041 3.77839 7.94491 3.66849C8.10931 3.55859 8.30261 3.49999 8.50041 3.49999C8.63381 3.49199 8.76741 3.51229 8.89241 3.55969C9.01731 3.60719 9.13092 3.68059 9.22542 3.77509C9.31992 3.86959 9.39331 3.98309 9.44071 4.10799C9.48811 4.23299 9.50841 4.36659 9.50041 4.49999Z" stroke="#F4F4F4"/>
<path d="M13.5003 6C13.7969 6 14.087 5.912 14.3336 5.7472C14.5803 5.5824 14.7726 5.3481 14.8861 5.074C14.9996 4.8 15.0293 4.4983 14.9714 4.2073C14.9136 3.9164 14.7707 3.6491 14.5609 3.4393C14.3511 3.2296 14.0839 3.0867 13.793 3.0288C13.502 2.9709 13.2004 3.0007 12.9263 3.1142C12.6522 3.2277 12.4179 3.42 12.2531 3.6666C12.0882 3.9133 12.0003 4.2033 12.0003 4.5C11.9966 4.698 12.033 4.8947 12.1071 5.0783C12.1811 5.262 12.2915 5.4288 12.4315 5.5689C12.5716 5.7089 12.7384 5.8192 12.922 5.8933C13.1056 5.9674 13.3023 6.0037 13.5003 6Z" fill="black"/>
<path d="M14.5004 4.49999C14.5004 4.69779 14.4418 4.89109 14.332 5.05549C14.2221 5.21999 14.0658 5.34819 13.8831 5.42389C13.7004 5.49959 13.4993 5.51939 13.3054 5.48079C13.1114 5.44219 12.9332 5.34689 12.7934 5.20709C12.6535 5.06719 12.5583 4.88899 12.5197 4.69509C12.4811 4.50109 12.5009 4.29999 12.5766 4.11729C12.6523 3.93459 12.7804 3.77839 12.9449 3.66849C13.1093 3.55859 13.3026 3.49999 13.5004 3.49999C13.6338 3.49199 13.7674 3.51229 13.8924 3.55969C14.0173 3.60719 14.1309 3.68059 14.2254 3.77509C14.3199 3.86959 14.3933 3.98309 14.4407 4.10799C14.4881 4.23299 14.5084 4.36659 14.5004 4.49999Z" stroke="#F4F4F4"/>
</svg>