
<svg width="17" height="11" viewBox="0 0 17 11" fill="none" xmlns="http://www.w3.org/2000/svg">
<path d="M8.02 0C8.77 0 9.5 0.0899988 10.24 0.279999C10.97 0.469999 11.67 0.740006 12.32 1.10001C12.97 1.46001 13.56 1.90001 14.09 2.43001C14.62 2.96001 15.05 3.57 15.38 4.25C15.59 4.68 15.75 5.13001 15.86 5.59001C15.97 6.05001 16.02 6.52 16.02 7H15.02C15.02 6.39 14.93 5.81 14.74 5.27C14.55 4.73 14.29 4.24 13.96 3.8C13.63 3.36 13.24 2.96 12.79 2.61C12.34 2.26 11.86 1.97001 11.34 1.73001C10.82 1.49001 10.28 1.31001 9.71 1.18001C9.14 1.05001 8.58 0.990005 8.01 0.990005C7.44 0.990005 6.88 1.05001 6.31 1.18001C5.74 1.31001 5.2 1.49001 4.68 1.73001C4.16 1.97001 3.68 2.26 3.23 2.61C2.78 2.96 2.39 3.36 2.06 3.8C1.73 4.24 1.47 4.73 1.28 5.27C1.09 5.81 1 6.38 1 7H0C0 6.52 0.0500001 6.05001 0.16 5.59001C0.27 5.13001 0.43 4.68 0.64 4.25C0.97 3.56 1.4 2.95001 1.93 2.43001C2.46 1.90001 3.05 1.46001 3.7 1.10001C4.35 0.740006 5.04 0.469999 5.78 0.279999C6.53 0.0999988 7.27 0 8.02 0ZM8.02 4.14C8.43 4.14 8.82 4.22001 9.18 4.37001C9.54 4.52001 9.86 4.74001 10.14 5.01001C10.42 5.28001 10.63 5.6 10.78 5.97C10.94 6.33 11.01 6.72 11.01 7.13C11.01 7.55 10.93 7.94 10.78 8.3C10.62 8.66 10.41 8.98 10.14 9.25C9.87 9.52 9.55 9.74 9.18 9.89C8.81 10.04 8.43 10.12 8.02 10.12C7.6 10.12 7.21 10.04 6.85 9.89C6.49 9.74 6.17 9.52 5.9 9.25C5.63 8.98 5.41 8.66 5.26 8.3C5.1 7.94 5.03 7.55 5.03 7.13C5.03 6.72 5.11 6.33 5.26 5.97C5.42 5.61 5.63 5.29001 5.9 5.01001C6.17 4.73001 6.49 4.52001 6.85 4.37001C7.21 4.22001 7.6 4.14 8.02 4.14ZM8.02 9.14C8.3 9.14 8.56 9.09001 8.8 8.98001C9.04 8.88001 9.25 8.73 9.44 8.55C9.62 8.37 9.77 8.16 9.87 7.91C9.97 7.66 10.03 7.41 10.03 7.13C10.03 6.85 9.98 6.59001 9.87 6.35001C9.76 6.11001 9.62 5.90001 9.44 5.71001C9.26 5.53001 9.05 5.38 8.8 5.28C8.56 5.18 8.3 5.12001 8.02 5.12001C7.74 5.12001 7.48 5.17 7.24 5.28C7 5.38 6.79 5.53001 6.6 5.71001C6.42 5.89001 6.27 6.10001 6.17 6.35001C6.07 6.60001 6.01 6.85 6.01 7.13C6.01 7.41 6.06 7.67 6.17 7.91C6.28 8.15 6.42 8.36 6.6 8.55C6.78 8.73 6.99 8.88001 7.24 8.98001C7.48 9.09001 7.74 9.14 8.02 9.14Z" fill="#fff"/>
</svg>