<svg width="17" height="9" viewBox="0 0 17 9" fill="none" xmlns="http://www.w3.org/2000/svg">
<rect width="17" height="9" fill="white"/>
<g opacity="0.1">
<path opacity="0.1" d="M3.5 7.0001C4.33 7.0001 5 6.3285 5 5.5001C5 4.6717 4.33 4.0001 3.5 4.0001C2.67 4.0001 2 4.6717 2 5.5001C2 6.3285 2.67 7.0001 3.5 7.0001Z" fill="black"/>
<path opacity="0.1" d="M8.5 7.0001C9.33 7.0001 10 6.3285 10 5.5001C10 4.6717 9.33 4.0001 8.5 4.0001C7.67 4.0001 7 4.6717 7 5.5001C7 6.3285 7.67 7.0001 8.5 7.0001Z" fill="black"/>
<path opacity="0.1" d="M13.5 7.0001C14.33 7.0001 15 6.3285 15 5.5001C15 4.6717 14.33 4.0001 13.5 4.0001C12.67 4.0001 12 4.6717 12 5.5001C12 6.3285 12.67 7.0001 13.5 7.0001Z" fill="black"/>
</g>
<path d="M4.5 4.4998C4.5 5.052 4.05 5.4998 3.5 5.4998C2.95 5.4998 2.5 5.052 2.5 4.4998C2.5 3.9475 2.95 3.4998 3.5 3.4998C4.05 3.4998 4.5 3.9475 4.5 4.4998Z" fill="#212121" fill-opacity="0.1" stroke="#212121"/>
<path d="M9.5 4.4998C9.5 5.052 9.05 5.4998 8.5 5.4998C7.95 5.4998 7.5 5.052 7.5 4.4998C7.5 3.9475 7.95 3.4998 8.5 3.4998C9.05 3.4998 9.5 3.9475 9.5 4.4998Z" fill="#212121" fill-opacity="0.1" stroke="#212121"/>
<path d="M14.5 4.4998C14.5 5.052 14.05 5.4998 13.5 5.4998C12.95 5.4998 12.5 5.052 12.5 4.4998C12.5 3.9475 12.95 3.4998 13.5 3.4998C14.05 3.4998 14.5 3.9475 14.5 4.4998Z" fill="#212121" fill-opacity="0.1" stroke="#212121"/>
</svg>
