<svg width="21" height="15" viewBox="0 0 21 15" fill="none" xmlns="http://www.w3.org/2000/svg">
<rect width="21" height="15" fill="white"/>
<path d="M2.5 4.5L11 0.742199L19.24 4.5L11 8.2422L2.5 4.5Z" fill="#E4E4E4"/>
<path d="M9.86011 1.1016L17.8601 4.6016L16.3601 4.8008L8.86011 1.6016L9.86011 1.1016Z" fill="#BEBEBE"/>
<path d="M10.3701 7.4437L3.23999 4.6862L10.6201 1.0369L17.73 4.2214L10.3701 7.4437Z" stroke="black"/>
<path d="M10 10.5L18 7L19.5 7.5L12 10.75L10 10.5Z" fill="#C4C4C4"/>
<path d="M2 7.0386L10.5 10V11L2 7.982V7.0386Z" fill="#878787"/>
<path d="M10.5 10L18.5 6.5L19.5 7L10.5 11V10Z" fill="#878787"/>
<path d="M2.42993 6.6523L11.5 10L10.4299 10.6523L2.42993 7.6504V6.6523Z" fill="#C4C4C4"/>
<path d="M2 7.0386L10.5 10V11L2 7.982V7.0386Z" fill="#878787"/>
<path d="M10.5 10L18.5 6.5L19.5 7L10.5 11V10Z" fill="#878787"/>
<path d="M10 13.5L18 10L19.5 10.5L12 13.75L10 13.5Z" fill="#C4C4C4"/>
<path d="M2.37988 9.7461L11.5 13L10.8799 13.7461L2.37988 10.7461V9.7461Z" fill="#C4C4C4"/>
<path d="M2 10.0386L10.5 13V14L2 10.982V10.0386Z" fill="#878787"/>
<path d="M10.5 13L18.5 9.5L19.5 10L10.5 14V13Z" fill="#878787"/>
</svg>
