<svg xmlns="http://www.w3.org/2000/svg" width="16" height="14" viewBox="0 0 16 14" fill="none">
<path opacity="0.75" fill-rule="evenodd" clip-rule="evenodd" d="M1.52002 4.4883V12.503H14.52V4.4883H1.52002Z" fill="#212121" fill-opacity="0.1" stroke="#212121" stroke-miterlimit="1"/>
<path opacity="0.1" d="M14.5 2.5H1.5V5.5H14.5V2.5Z" stroke="black" stroke-miterlimit="1"/>
<path d="M14.5 1.5H1.5V4.5H14.5V1.5Z" fill="#212121" fill-opacity="0.1" stroke="#212121" stroke-miterlimit="1"/>
<path d="M9 10H7V12H9V10Z" fill="#D6D6D6"/>
<path d="M5 10H3V12H5V10Z" fill="#D6D6D6"/>
<path d="M13 10H11V12H13V10Z" fill="#D6D6D6"/>
<path d="M9 7H7V9H9V7Z" fill="#D6D6D6"/>
<path d="M5 7H3V9H5V7Z" fill="#D6D6D6"/>
<path d="M13 7H11V9H13V7Z" fill="#D6D6D6"/>
<path d="M9 9H7V11H9V9Z" fill="#8A8A8A"/>
<path d="M5 9H3V11H5V9Z" fill="#8A8A8A"/>
<path d="M13 9H11V11H13V9Z" fill="#8A8A8A"/>
<path d="M9 6H7V8H9V6Z" fill="#8A8A8A"/>
<path d="M5 6H3V8H5V6Z" fill="#8A8A8A"/>
<path d="M13 6H11V8H13V6Z" fill="#8A8A8A"/>
</svg>