<svg xmlns="http://www.w3.org/2000/svg" width="18" height="15" viewBox="0 0 18 15" fill="none" shape-rendering="geometricPrecision">
<path opacity="0.75" fill-rule="evenodd" clip-rule="evenodd" d="M2.52246 4.4883V12.503H15.5225V4.4883H2.52246Z" fill="#E8E8E8" stroke="#F2F2F2" stroke-miterlimit="1"/>
<path opacity="0.1" d="M15.5 2.5H2.5V5.5H15.5V2.5Z" stroke="black" stroke-miterlimit="1"/>
<path d="M15.5 1.5H2.5V4.5H15.5V1.5Z" fill="white" fill-opacity="0.3" stroke="#F4F4F4" stroke-miterlimit="1"/>
<path d="M10 10H8V12H10V10Z" fill="#1F1F20"/>
<path d="M6 10H4V12H6V10Z" fill="#1F1F20"/>
<path d="M14 10H12V12H14V10Z" fill="#1F1F20"/>
<path d="M10 7H8V9H10V7Z" fill="#1F1F20"/>
<path d="M6 7H4V9H6V7Z" fill="#1F1F20"/>
<path d="M14 7H12V9H14V7Z" fill="#1F1F20"/>
<path d="M10 9H8V11H10V9Z" fill="#C5C5C5"/>
<path d="M6 9H4V11H6V9Z" fill="#C5C5C5"/>
<path d="M14 9H12V11H14V9Z" fill="#C5C5C5"/>
<path d="M10 6H8V8H10V6Z" fill="#C5C5C5"/>
<path d="M6 6H4V8H6V6Z" fill="#C5C5C5"/>
<path d="M14 6H12V8H14V6Z" fill="#C5C5C5"/>
</svg>