<svg width="16" height="16" viewBox="0 0 16 16" fill="none" xmlns="http://www.w3.org/2000/svg">
<path d="M5.2 7.1C5.2 6.8 5.1 6.5 5.1 6.3C5.01767 6.04177 4.98377 5.77055 5 5.5C5.01725 4.99465 5.08424 4.49222 5.2 4C5.31582 3.53256 5.51943 3.0914 5.8 2.7C6.00804 2.29408 6.27793 1.92298 6.6 1.6L7.7 0.7L9 0.2L10.5 0L12 0.2C12.4674 0.315819 12.9086 0.519433 13.3 0.8L14.4 1.6L15.3 2.7C15.5101 3.11536 15.6776 3.55091 15.8 4C15.9158 4.49222 15.9827 4.99465 16 5.5C15.9827 6.00535 15.9158 6.50778 15.8 7C15.6776 7.44909 15.5101 7.88464 15.3 8.3L14.4 9.4L13.3 10.3L12 10.8L10.5 11L9.2 10.8L8 10.4V12H6V14H4V16H0V12.3L5.2 7.1ZM1 15H3V13H5V11H7V9H7.7C8.0749 9.32852 8.51936 9.56785 9 9.7C9.47604 9.89557 9.98536 9.99743 10.5 10C11.1233 10.0125 11.7406 9.87529 12.3 9.6C12.822 9.39639 13.298 9.09038 13.7 8.7C14.0904 8.29804 14.3964 7.82203 14.6 7.3C14.8753 6.7406 15.0125 6.12335 15 5.5C15.0218 4.90769 14.8836 4.32046 14.6 3.8C14.4207 3.23681 14.1126 2.72321 13.7 2.3C13.298 1.90961 12.822 1.60361 12.3 1.4C11.7406 1.12471 11.1233 0.987538 10.5 1C9.90769 0.978247 9.32046 1.11642 8.8 1.4C8.23681 1.57927 7.72321 1.88743 7.3 2.3C6.90962 2.70196 6.60361 3.17797 6.4 3.7C6.12471 4.2594 5.98754 4.87665 6 5.5C5.98428 5.80344 6.01805 6.10741 6.1 6.4L6.4 7.3L1 12.7V15ZM12.4 3.1L12.7 3.3C12.8 3.4 12.9 3.5 12.9 3.6C12.9795 3.71733 13.015 3.85904 13 4C13.015 4.14096 12.9795 4.28267 12.9 4.4L12.7 4.7L12.4 4.9H11.6L11.3 4.7L11.1 4.4C11.0205 4.28267 10.985 4.14096 11 4C10.985 3.85904 11.0205 3.71733 11.1 3.6C11.1 3.5 11.2 3.4 11.3 3.3L11.6 3.1H12.4Z" fill="#136BFB"/>
</svg>
