<svg width="16" height="16" viewBox="0 0 16 16" fill="none" xmlns="http://www.w3.org/2000/svg">
<path d="M5.55 7.2125C5.55 6.95 5.4625 6.6875 5.4625 6.5125C5.39046 6.28655 5.3608 6.04923 5.375 5.8125C5.3901 5.37032 5.44871 4.93069 5.55 4.5C5.65134 4.09099 5.8295 3.70497 6.075 3.3625C6.25703 3.00732 6.49319 2.68261 6.775 2.4L7.7375 1.6125L8.875 1.175L10.1875 1L11.5 1.175C11.909 1.27634 12.295 1.4545 12.6375 1.7L13.6 2.4L14.3875 3.3625C14.5713 3.72594 14.7179 4.10705 14.825 4.5C14.9263 4.93069 14.9849 5.37032 15 5.8125C14.9849 6.25468 14.9263 6.69431 14.825 7.125C14.7179 7.51795 14.5713 7.89906 14.3875 8.2625L13.6 9.225L12.6375 10.0125L11.5 10.45L10.1875 10.625L9.05 10.45L8 10.1V11.5H6.25V13.25H4.5V15H1V11.7625L5.55 7.2125ZM1.875 14.125H3.625V12.375H5.375V10.625H7.125V8.875H7.7375C8.06554 9.16246 8.45444 9.37187 8.875 9.4875C9.29154 9.65862 9.73719 9.74775 10.1875 9.75C10.7329 9.7609 11.273 9.64088 11.7625 9.4C12.2193 9.22184 12.6358 8.95409 12.9875 8.6125C13.3291 8.26079 13.5968 7.84428 13.775 7.3875C14.0159 6.89802 14.1359 6.35793 14.125 5.8125C14.144 5.29423 14.0231 4.7804 13.775 4.325C13.6181 3.83221 13.3485 3.38281 12.9875 3.0125C12.6358 2.67091 12.2193 2.40316 11.7625 2.225C11.273 1.98412 10.7329 1.8641 10.1875 1.875C9.66923 1.85597 9.15541 1.97687 8.7 2.225C8.20721 2.38186 7.75781 2.6515 7.3875 3.0125C7.04591 3.36421 6.77816 3.78072 6.6 4.2375C6.35912 4.72698 6.2391 5.26707 6.25 5.8125C6.23625 6.07801 6.2658 6.34399 6.3375 6.6L6.6 7.3875L1.875 12.1125V14.125ZM11.85 3.7125L12.1125 3.8875C12.2 3.975 12.2875 4.0625 12.2875 4.15C12.3571 4.25267 12.3881 4.37666 12.375 4.5C12.3881 4.62334 12.3571 4.74733 12.2875 4.85L12.1125 5.1125L11.85 5.2875H11.15L10.8875 5.1125L10.7125 4.85C10.6429 4.74733 10.6119 4.62334 10.625 4.5C10.6119 4.37666 10.6429 4.25267 10.7125 4.15C10.7125 4.0625 10.8 3.975 10.8875 3.8875L11.15 3.7125H11.85Z" fill="#136BFB"/>
</svg>
