<svg xmlns="http://www.w3.org/2000/svg" width="25" height="21" viewBox="0 0 21 17" fill="none">
<path d="M3.49292 6.69674L11.8736 2.743L20 6.69674L11.8727 10.6339L3.49292 6.69674Z" fill="#E4E4E4" fill-opacity="0.5"/>
<path d="M10.7517 3.12112L18.6385 6.80352L17.1598 7.0131L9.76587 3.64718L10.7517 3.12112Z" fill="#BEBEBE"/>
<path d="M11.496 3.05307L18.5123 6.40342L11.2486 9.79375L4.22339 6.89245L11.496 3.05307Z" stroke="#F4F4F4"/>
<path d="M11.009 14.0606L18.3773 10.2309L19.7595 10.778L12.8516 14.3341L11.009 14.0606Z" fill="#C4C4C4" fill-opacity="0.4"/>
<path d="M3 8.80002L12.3656 12.4824L10.8789 13.986L3.04928 10.6171L3 8.80002Z" fill="#C4C4C4" fill-opacity="0.4"/>
<path d="M3 9.93051L11.1402 13.2539V14.3762L3 10.9893V9.93051Z" fill="#A6A6A6"/>
<path d="M11.1401 13.2539L18.8022 9.32608L19.7594 9.88717L11.1401 14.3762V13.2539Z" fill="#A6A6A6"/>
<path d="M11.009 17.3432L18.3773 13.5135L19.7595 14.0606L12.8516 17.6167L11.009 17.3432Z" fill="#C4C4C4" fill-opacity="0.4"/>
<path d="M3 12.9689L11.9299 16.6206L11.3186 17.458L3 14.0912V12.9689Z" fill="#C4C4C4" fill-opacity="0.4"/>
<path d="M3 13.2973L11.1402 16.6207V17.743L3 14.356V13.2973Z" fill="#A6A6A6"/>
<path d="M11.1401 16.6207L18.8022 12.6928L19.7594 13.2539L11.1401 17.743V16.6207Z" fill="#A6A6A6"/>
</svg>