<svg xmlns="http://www.w3.org/2000/svg" width="21" height="17" viewBox="0 0 21 17" fill="none">
<rect width="21" height="17" fill="white"/>
<path d="M2.4856 4.99381L10.7427 0.742199L18.7473 4.99381L10.7427 9.22777L2.4856 4.99381Z" fill="#E4E4E4"/>
<path d="M9.63549 1.14883L17.4069 5.10876L15.9498 5.33414L8.66406 1.71454L9.63549 1.14883Z" fill="#BEBEBE"/>
<path d="M10.131 8.32434L3.20459 5.20448L10.3739 1.07563L17.2806 4.6786L10.131 8.32434Z" stroke="black"/>
<path d="M9.77148 11.7823L17.5429 7.82233L19.0001 8.38804L11.7143 12.0651L9.77148 11.7823Z" fill="#C4C4C4"/>
<path d="M2 7.866L10.2571 11.2166V12.348L2 8.93337V7.866Z" fill="#878787"/>
<path d="M10.2571 11.2166L18.0285 7.25663L18.9999 7.82233L10.2571 12.348V11.2166Z" fill="#878787"/>
<path d="M2.41772 7.42894L11.2286 11.2166L10.1892 11.9546L2.41772 8.5582V7.42894Z" fill="#C4C4C4"/>
<path d="M2 7.866L10.2571 11.2166V12.348L2 8.93337V7.866Z" fill="#878787"/>
<path d="M10.2571 11.2166L18.0285 7.25663L18.9999 7.82233L10.2571 12.348V11.2166Z" fill="#878787"/>
<path d="M9.77148 15.1765L17.5429 11.2166L19.0001 11.7823L11.7143 15.4593L9.77148 15.1765Z" fill="#C4C4C4"/>
<path d="M2.36914 10.9293L11.2287 14.6108L10.6263 15.4549L2.36914 12.0607V10.9293Z" fill="#C4C4C4"/>
<path d="M2 11.2602L10.2571 14.6108V15.7422L2 12.3276V11.2602Z" fill="#878787"/>
<path d="M10.2571 14.6108L18.0285 10.6509L18.9999 11.2166L10.2571 15.7422V14.6108Z" fill="#878787"/>
</svg>