<svg width="17" height="15" viewBox="0 0 17 15" fill="none" xmlns="http://www.w3.org/2000/svg">
<path d="M0.453125 3V0H3.52209V3H0.453125ZM0.453125 7V4H3.52209V7H0.453125ZM0.453125 11V8H3.52209V11H0.453125ZM0.453125 15V12H3.52209V15H0.453125ZM1.47611 1V2H2.4991V1H1.47611ZM1.47611 5V6H2.4991V5H1.47611ZM1.47611 9V10H2.4991V9H1.47611ZM1.47611 13V14H2.4991V13H1.47611ZM5.56807 1H16.8209V2H5.56807V1ZM5.56807 6V5H14.775V6H5.56807ZM12.729 9V10H5.56807V9H12.729ZM5.56807 14V13H14.775V14H5.56807Z" fill="#212121"/>
</svg>
