
<svg height='300px' width='300px'  fill="#000000" xmlns="http://www.w3.org/2000/svg" xmlns:xlink="http://www.w3.org/1999/xlink" version="1.1" x="0px" y="0px" viewBox="0 0 600 600" style="enable-background:new 0 0 600 600;" xml:space="preserve"><g><g><g><path d="M507.885,500H369.271c-7.148,0-13.754-3.815-17.325-10.009c-3.571-6.192-3.566-13.82,0.015-20.008     C357.22,460.895,360,450.526,360,440c0-33.084-26.916-60-60-60s-60,26.916-60,60c0,10.526,2.78,20.895,8.039,29.983     c3.58,6.188,3.585,13.815,0.014,20.009C244.482,496.185,237.876,500,230.728,500H92.115c-7.139,0-13.737-3.806-17.312-9.985     C52.035,450.657,40,405.699,40,360c0-69.448,27.044-134.74,76.152-183.848C165.26,127.045,230.551,100,300,100     c69.448,0,134.74,27.045,183.848,76.152S560,290.552,560,360c0,45.698-12.035,90.656-34.804,130.015     C521.622,496.194,515.024,500,507.885,500z M397.976,460h98.029C511.732,429.196,520,394.857,520,360     c0-121.309-98.691-220-220-220S80,238.691,80,360c0,34.858,8.268,69.197,23.995,100h98.029c-1.339-6.558-2.024-13.261-2.024-20     c0-55.141,44.86-100,100-100c55.141,0,100,44.859,100,100C400,446.739,399.315,453.442,397.976,460z"></path></g><g><path d="M369.271,500H230.729c-7.138,0-13.735-3.805-17.311-9.982C204.64,474.848,200,457.553,200,440     c0-55.141,44.86-100,100-100c55.141,0,100,44.859,100,100c0,17.552-4.64,34.848-13.418,50.017     C383.007,496.195,376.41,500,369.271,500z M243.435,460h113.13c2.263-6.396,3.435-13.164,3.435-20c0-33.084-26.916-60-60-60     s-60,26.916-60,60C240,446.836,241.172,453.604,243.435,460z"></path></g><circle cx="300" cy="180" r="20"></circle><circle cx="427.279" cy="232.721" r="20"></circle><circle cx="480" cy="360" r="20"></circle><circle cx="120" cy="360" r="20"></circle><circle cx="172.721" cy="232.721" r="20"></circle><g><path d="M300,380c-11.046,0-20-8.954-20-20V240c0-11.046,8.954-20,20-20s20,8.954,20,20v120C320,371.046,311.046,380,300,380z"></path></g></g></g></svg>