<svg width="16" height="16" viewBox="0 0 16 16" fill="none" xmlns="http://www.w3.org/2000/svg">
<g clip-path="url(#clip0)">
<path d="M15.55 5.39C15.38 5.56 15.21 5.72 15.04 5.86C14.8876 6.00152 14.7199 6.12562 14.54 6.23C14.3562 6.32882 14.1616 6.406 13.96 6.46C13.7341 6.5148 13.5024 6.54167 13.27 6.54C13.1004 6.55574 12.9296 6.55574 12.76 6.54L9.76 9.54C9.82062 9.74057 9.87069 9.94419 9.91 10.15C9.92492 10.3597 9.92492 10.5703 9.91 10.78C9.91468 11.0896 9.88109 11.3986 9.81 11.7C9.74663 11.9712 9.64919 12.2333 9.52 12.48C9.39153 12.7311 9.23377 12.9661 9.05 13.18C8.85818 13.4167 8.65459 13.6437 8.44 13.86L5.44 10.86L1.06 15.2L0 15.55L0.35 14.48L4.8 10.05L1.8 7.05L2.15 6.7C2.51405 6.34401 2.94137 6.05913 3.41 5.86C3.87977 5.66796 4.3825 5.56945 4.89 5.57C5.30479 5.57051 5.71676 5.63805 6.11 5.77L9.11 2.77C9.09437 2.60036 9.09437 2.42964 9.11 2.26C9.10986 2.02768 9.13671 1.79613 9.19 1.57C9.20601 1.37479 9.24979 1.18285 9.32 1C9.42489 0.82296 9.54537 0.65563 9.68 0.5C9.83 0.34 9.98 0.17 10.16 0L15.55 5.39ZM13.27 5.54C13.5519 5.53769 13.8294 5.46918 14.08 5.34L10.21 1.47C10.0794 1.72007 10.0108 1.99787 10.01 2.28C10.0057 2.41842 10.0226 2.55668 10.06 2.69C10.06 2.82 10.13 2.95 10.17 3.09L6.33 6.92L6 6.77L5.66 6.66C5.5423 6.62386 5.42193 6.59711 5.3 6.58C5.17022 6.56933 5.03978 6.56933 4.91 6.58C4.60342 6.56898 4.29687 6.60267 4 6.68C3.72766 6.77205 3.46873 6.89984 3.23 7.06L8.48 12.32C8.64924 12.0815 8.78078 11.8185 8.87 11.54C8.9578 11.2653 9.00167 10.9784 9 10.69C9.01027 10.5569 9.01027 10.4231 9 10.29C8.98289 10.1681 8.95614 10.0477 8.92 9.93C8.88896 9.8137 8.84884 9.70002 8.8 9.59C8.7569 9.46398 8.70682 9.34046 8.65 9.22L12.49 5.38L12.89 5.49C13.0144 5.52094 13.1419 5.53771 13.27 5.54Z" fill="white"/>
</g>
<defs>
<clipPath id="clip0">
<rect width="15.55" height="15.55" fill="white"/>
</clipPath>
</defs>
</svg>
