<svg width="11" height="11" viewBox="0 0 11 11" fill="none" xmlns="http://www.w3.org/2000/svg">
<path fill-rule="evenodd" clip-rule="evenodd" d="M10.6435 4.14849C10.7596 4.04715 10.8784 3.93568 11 3.81407L7.18593 0C7.06432 0.121608 6.95285 0.240452 6.85151 0.356533C6.75017 0.472613 6.66449 0.5933 6.59447 0.718593C6.52446 0.843887 6.4701 0.979314 6.43141 1.12488C6.39271 1.27044 6.37337 1.4335 6.37337 1.61407C6.37337 1.73937 6.38442 1.85913 6.40653 1.97337L4.31156 4.06835C4.03517 3.97622 3.7459 3.93016 3.44372 3.93016C3.07889 3.93016 2.72973 3.99833 2.39623 4.13468C2.06273 4.27103 1.767 4.46818 1.50904 4.72613L1.2603 4.97488L3.39397 7.10855L0.248744 10.2482L0 11L0.75176 10.7513L3.89146 7.60604L6.02513 9.73971C6.18728 9.57756 6.33284 9.41818 6.46182 9.26157C6.59079 9.10495 6.70043 8.94004 6.79071 8.76684C6.88099 8.59364 6.95009 8.40939 6.998 8.21408C7.0459 8.01877 7.06986 7.80135 7.06986 7.56181C7.06986 7.41441 7.0588 7.26701 7.03669 7.1196C7.01458 6.9722 6.97957 6.82848 6.93167 6.68845L9.02664 4.59347C9.14088 4.61558 9.26065 4.62663 9.38594 4.62663C9.5702 4.62663 9.7351 4.60729 9.88066 4.56859C10.0262 4.5299 10.1607 4.47554 10.2842 4.40553C10.4076 4.33551 10.5274 4.24983 10.6435 4.14849ZM9.96082 3.77539C9.78025 3.8712 9.58862 3.91911 9.38594 3.91911C9.28276 3.91911 9.18603 3.90713 9.09574 3.88318C9.00546 3.85923 8.91241 3.83251 8.8166 3.80303L6.10253 6.52263C6.13938 6.61475 6.17439 6.70135 6.20755 6.78243C6.24072 6.8635 6.26928 6.94549 6.29323 7.02841C6.31718 7.11132 6.33561 7.19608 6.34851 7.28268C6.3614 7.36928 6.36785 7.46232 6.36785 7.56182C6.36785 7.76819 6.33653 7.96994 6.27388 8.1671C6.21124 8.36425 6.12095 8.54758 6.00303 8.7171L2.28293 4.99699C2.45244 4.87907 2.63577 4.78971 2.83293 4.7289C3.03008 4.6681 3.23368 4.6377 3.44373 4.6377C3.54323 4.6377 3.63628 4.64415 3.72288 4.65705C3.80947 4.66994 3.89331 4.68745 3.97438 4.70956C4.05545 4.73167 4.13653 4.75931 4.2176 4.79247C4.29867 4.82564 4.38527 4.86065 4.4774 4.8975L7.197 2.18343C7.16752 2.08761 7.1408 1.99457 7.11685 1.90428C7.09289 1.814 7.08092 1.71726 7.08092 1.61408C7.08092 1.4114 7.12882 1.21977 7.22464 1.0392L9.96082 3.77539Z" fill="black"/>
</svg>
