<svg width="16" height="16" viewBox="0 0 16 16" fill="none" xmlns="http://www.w3.org/2000/svg">
  <path fill-rule="evenodd" clip-rule="evenodd" d="M11.96.195A5.433 5.433 0 0 0 10.5 0a5.433 5.433 0 0 0-2.773.75A5.571 5.571 0 0 0 5.75 2.727 5.434 5.434 0 0 0 5 5.5c0 .651.11 1.275.328 1.871.219.596.534 1.145.945 1.645L.148 15.149A.48.48 0 0 0 0 15.5c0 .135.05.253.148.352A.48.48 0 0 0 .5 16a.48.48 0 0 0 .352-.148l6.132-6.125c.5.411 1.049.726 1.645.945.596.219 1.22.328 1.871.328a5.433 5.433 0 0 0 2.773-.75 5.573 5.573 0 0 0 1.977-1.977A5.433 5.433 0 0 0 16 5.5a5.434 5.434 0 0 0-.75-2.773 5.573 5.573 0 0 0-.863-1.114A5.568 5.568 0 0 0 13.273.75a5.432 5.432 0 0 0-1.312-.555zm.29 9.45A4.354 4.354 0 0 1 10.5 10c-.62 0-1.203-.118-1.75-.355a4.57 4.57 0 0 1-1.43-.965 4.57 4.57 0 0 1-.965-1.43A4.354 4.354 0 0 1 6 5.5c0-.62.118-1.203.355-1.75a4.57 4.57 0 0 1 .965-1.43 4.57 4.57 0 0 1 1.43-.965A4.354 4.354 0 0 1 10.5 1c.62 0 1.203.119 1.75.355a4.57 4.57 0 0 1 1.43.965c.406.407.728.883.965 1.43.237.547.355 1.13.355 1.75 0 .62-.118 1.203-.355 1.75a4.57 4.57 0 0 1-.965 1.43 4.57 4.57 0 0 1-1.43.965z" fill="#555"/>
</svg>
