<svg width="13" height="14" viewBox="0 0 13 14" fill="none" xmlns="http://www.w3.org/2000/svg">
<path fill-rule="evenodd" clip-rule="evenodd" d="M8.55245 12.7955C5.35165 13.6532 2.06163 11.7537 1.20398 8.55291C0.34633 5.35211 2.24583 2.06209 5.44662 1.20444C8.64742 0.346788 11.9374 2.24628 12.7951 5.44708C13.6527 8.64788 11.7532 11.9379 8.55245 12.7955ZM8.29331 11.8284C10.96 11.1139 12.5425 8.37289 11.828 5.70622C11.1134 3.03955 8.37243 1.45703 5.70576 2.17156C3.03909 2.88609 1.45657 5.6271 2.17111 8.29377C2.88564 10.9604 5.62664 12.543 8.29331 11.8284Z" fill="#C7E0F4"/>
<mask id="mask0" mask-type="alpha" maskUnits="userSpaceOnUse" x="0" y="0" width="14" height="14">
<path fill-rule="evenodd" clip-rule="evenodd" d="M8.55245 12.7955C5.35165 13.6532 2.06163 11.7537 1.20398 8.55291C0.34633 5.35211 2.24583 2.06209 5.44662 1.20444C8.64742 0.346788 11.9374 2.24628 12.7951 5.44708C13.6527 8.64788 11.7532 11.9379 8.55245 12.7955ZM8.29331 11.8284C10.96 11.1139 12.5425 8.37289 11.828 5.70622C11.1134 3.03955 8.37243 1.45703 5.70576 2.17156C3.03909 2.88609 1.45657 5.6271 2.17111 8.29377C2.88564 10.9604 5.62664 12.543 8.29331 11.8284Z" fill="white"/>
</mask>
<g mask="url(#mask0)">
<rect x="9.91211" y="-3.86667" width="12" height="12" transform="rotate(15 9.91211 -3.86667)" fill="#136BFB"/>
</g>
</svg>
